<svg data-name="Livello 10" xmlns="http://www.w3.org/2000/svg" width="237" height="100" viewBox="0 0 237 100"><title>edo-logo</title><path d="M17.61 56.14c1.12 8.53 8.53 14.68 20.55 14.68 6.29 0 14.54-2.38 18.45-6.43l10.9 10.76c-7.26 7.55-19.14 11.19-29.63 11.19C14.12 86.34 0 71.66 0 49.57c0-21 14.26-36.07 36.62-36.07 23.07 0 37.46 14.26 34.81 42.64zM55.08 42C54 33.08 47 28.6 37.18 28.6 28 28.6 20.41 33.08 17.89 42z"/><path d="M86.08 77.46c0 11-16.68 11-16.68 0s16.68-11.01 16.68 0z" fill="#1c4c99"/><path d="M200.14 13.21c-12.19 0-21.88 4.9-28.2 12.6C164.82 11.05 150.35 0 127.29 0H88v100h39.29c23 0 37.53-11 44.69-25.77 6.29 7.61 16 12.41 28.31 12.41 22.86 0 36.71-16.43 36.71-36.71s-14.43-36.72-36.86-36.72zm-72.85 68.65h-20.57v-64h20.57c21.71 0 30.86 15.57 31.29 31.14.42 16.29-8.58 32.86-31.29 32.86zm73-11.22c-12.71 0-19.14-10-19.14-20.71s6.57-20.86 19.14-20.86c11.71 0 19.14 10.29 19.14 20.86S213 70.64 200.29 70.64z"/></svg>